<svg id="_117_Accessibility_Features" data-name="117 Accessibility  Features" xmlns="http://www.w3.org/2000/svg" width="24" height="24.004" viewBox="0 0 24 24.004">
  <path id="Path_32687" data-name="Path 32687" d="M210.287,225.408l-.51-.55a3.188,3.188,0,0,1,4.333,0l-.51.55A2.433,2.433,0,0,0,210.287,225.408Zm0,0" transform="translate(-199.944 -213.508)" fill="#595959"/>
  <path id="Path_32688" data-name="Path 32688" d="M18.75,21H22.5v-.75H20.25V0H3.75V20.25H1.5V21H8.768l.374.75H0v.75H9.518l.143.287A2.183,2.183,0,0,0,11.624,24h5.813l1.125-1.5H24v-.75H18.75Zm-.75.75V22l-.938,1.25H11.626a1.437,1.437,0,0,1-1.292-.8L8.711,19.221a.669.669,0,0,1,1.171-.646L10.9,20.249h.73V13.313a.562.562,0,0,1,1.125,0V18h.75V16.876h.75a.374.374,0,0,1,.374.374v1.5h.75V17.626h.75A.374.374,0,0,1,16.5,18v1.5h.75V18.376h.374a.374.374,0,0,1,.374.374Zm-2.994-12v4.5H13.5v-.938a1.313,1.313,0,1,0-2.625,0v.938H9v-4.5ZM9.751,9V7.5a2.251,2.251,0,0,1,4.5,0V9Zm7.874,8.625h-.439a1.127,1.127,0,0,0-1.061-.75h-.811a1.127,1.127,0,0,0-1.061-.75H13.5V15.005H15.75V9h-.745V7.5a3,3,0,0,0-6,0V9h-.76v6h2.629v3.758l-.346-.57a1.419,1.419,0,0,0-2.482,1.369l.346.692H6v-7.5H5.25v7.5H4.5V.75H19.505v19.5H18.75v-1.5a1.125,1.125,0,0,0-1.125-1.125Zm0,0" fill="#595959"/>
  <path id="Path_32689" data-name="Path 32689" d="M113.125,176A1.125,1.125,0,0,0,112,177.125v1.5a1.125,1.125,0,0,0,2.249,0v-1.5A1.125,1.125,0,0,0,113.125,176Zm.374,2.625a.376.376,0,1,1-.75,0v-1.5a.376.376,0,0,1,.75,0Zm0,0" transform="translate(-106.75 -167.75)" fill="#595959"/>
  <path id="Path_32690" data-name="Path 32690" d="M125.5,32H112v6h.75V32.75h12V47.375h.75Zm0,0" transform="translate(-106.75 -30.499)" fill="#595959"/>
  <path id="Path_32691" data-name="Path 32691" d="M0,432H.75v.75H0Zm0,0" transform="translate(0 -411.75)" fill="#595959"/>
  <path id="Path_32692" data-name="Path 32692" d="M496,432h.75v.75H496Zm0,0" transform="translate(-472.75 -411.75)" fill="#595959"/>
</svg>
