<svg xmlns="http://www.w3.org/2000/svg" xmlns:xlink="http://www.w3.org/1999/xlink" width="24" height="24.001" viewBox="0 0 24 24.001">
  <defs>
    <clipPath id="clip-path">
      <path id="path843" d="M0-682.665H24v24H0Z" transform="translate(0 682.665)"/>
    </clipPath>
  </defs>
  <g id="g837" transform="translate(0 682.665)" opacity="0.602">
    <g id="g839" transform="translate(0 -682.665)">
      <g id="g841" clip-path="url(#clip-path)">
        <g id="g847" transform="translate(7.994 12.964)">
          <path id="path849" d="M-13.248-94.747h0a1.1,1.1,0,0,0,1.44-.043A3.167,3.167,0,0,1-9.721-95.6a3.167,3.167,0,0,1,2.094.792,1.1,1.1,0,0,0,1.44.029h0A1.373,1.373,0,0,0-5.715-95.8a1.373,1.373,0,0,0-.437-1.032A5.372,5.372,0,0,0-9.729-98.2,5.372,5.372,0,0,0-13.3-96.8a1.373,1.373,0,0,0-.431,1.034,1.373,1.373,0,0,0,.478,1.013Z" transform="translate(13.73 98.201)" fill="none" stroke="rgba(29,29,29,0.89)" stroke-linecap="round" stroke-linejoin="round" stroke-miterlimit="10" stroke-width="0.5" stroke-dasharray="67 35 1000 0"/>
        </g>
        <g id="g851" transform="translate(4.152 7.766)">
          <path id="path853" d="M-13.194-151.6h0a1.1,1.1,0,0,0,.811.242,1.1,1.1,0,0,0,.744-.412,7.71,7.71,0,0,1,5.807-2.764A7.71,7.71,0,0,1-.008-151.82a1.1,1.1,0,0,0,.748.4,1.1,1.1,0,0,0,.81-.25h0a1.388,1.388,0,0,0,.137-1.945,9.957,9.957,0,0,0-7.537-3.51,9.959,9.959,0,0,0-7.5,3.582,1.388,1.388,0,0,0,.158,1.938Z" transform="translate(13.676 157.126)" fill="none" stroke="rgba(29,29,29,0.89)" stroke-linecap="round" stroke-linejoin="round" stroke-miterlimit="10" stroke-width="0.5"/>
        </g>
        <g id="g855" transform="translate(0.345 2.571)">
          <path id="path857" d="M-13.221-209.407h0a1.1,1.1,0,0,0,.824.243,1.1,1.1,0,0,0,.747-.432,12.273,12.273,0,0,1,9.571-4.845,12.273,12.273,0,0,1,9.61,4.751,1.1,1.1,0,0,0,.755.428,1.1,1.1,0,0,0,.824-.255h0a1.387,1.387,0,0,0,.177-1.9A14.537,14.537,0,0,0-2.1-217.037,14.538,14.538,0,0,0-13.422-211.3a1.387,1.387,0,0,0,.194,1.9Z" transform="translate(13.71 217.037)" fill="none" stroke="rgba(29,29,29,0.89)" stroke-linecap="round" stroke-linejoin="round" stroke-miterlimit="10" stroke-width="0.5" stroke-dasharray="700 35 1000 0"/>
        </g>
        <g id="g859" transform="translate(10.535 18.492)">
          <path id="path861" d="M-40.218-80.764a1.47,1.47,0,0,1-1.466-1.472A1.47,1.47,0,0,1-40.218-83.7a1.47,1.47,0,0,1,1.466,1.472,1.47,1.47,0,0,1-1.466,1.472Z" transform="translate(41.684 83.7)" fill="none" stroke="rgba(29,29,29,0.89)" stroke-linecap="round" stroke-linejoin="round" stroke-miterlimit="10" stroke-width="0.5"/>
        </g>
      </g>
    </g>
  </g>
</svg>
