<svg xmlns="http://www.w3.org/2000/svg" width="24.503" height="20.988" viewBox="0 0 24.503 20.988">
  <g id="Group_165038" data-name="Group 165038" transform="translate(15710.252 5222.25)">
    <g id="telephone" transform="translate(-15720 -5268)">
      <path id="Path_32883" data-name="Path 32883" d="M10,172.072H34v-4A26.441,26.441,0,0,1,28.439,157H15.561A26.441,26.441,0,0,1,10,168.072Z" transform="translate(0 -105.584)" fill="none" stroke="#595959" stroke-linecap="round" stroke-linejoin="round" stroke-miterlimit="22.926" stroke-width="0.5" fill-rule="evenodd"/>
      <path id="Path_32884" data-name="Path 32884" d="M14.635,54.209a8.176,8.176,0,0,1-3.746.437C6.874,47.69,17.5,46,22,46s15.127,1.69,11.11,8.648a8.18,8.18,0,0,1-3.725-.43m-1.769-2.85c-.415-1.6-2.324-2.1-5.615-2.1s-5.2.5-5.615,2.1" transform="translate(0 0)" fill="none" stroke="#595959" stroke-linecap="round" stroke-linejoin="round" stroke-miterlimit="22.926" stroke-width="0.5" fill-rule="evenodd"/>
      <circle id="Ellipse_85" data-name="Ellipse 85" cx="5.366" cy="5.366" r="5.366" transform="translate(16.635 53.586)" fill="none" stroke="#595959" stroke-linecap="round" stroke-linejoin="round" stroke-miterlimit="22.926" stroke-width="0.5"/>
      <path id="Path_32885" data-name="Path 32885" d="M227.463,284.425A1.463,1.463,0,1,0,226,282.962,1.463,1.463,0,0,0,227.463,284.425Z" transform="translate(-205.464 -224.01)" fill="none" stroke="#595959" stroke-linecap="round" stroke-linejoin="round" stroke-miterlimit="22.926" stroke-width="0.5" fill-rule="evenodd"/>
      <line id="Line_161" data-name="Line 161" x2="0.473" y2="1.562" transform="translate(18.846 49.669)" fill="none" stroke="#595959" stroke-linecap="round" stroke-linejoin="round" stroke-miterlimit="22.926" stroke-width="0.5"/>
      <line id="Line_162" data-name="Line 162" x1="0.473" y2="1.562" transform="translate(24.681 49.669)" fill="none" stroke="#595959" stroke-linecap="round" stroke-linejoin="round" stroke-miterlimit="22.926" stroke-width="0.5"/>
      <line id="Line_163" data-name="Line 163" transform="translate(21.999 55.537)" fill="none" stroke="#595959" stroke-linecap="round" stroke-linejoin="round" stroke-miterlimit="22.926" stroke-width="0.5"/>
      <line id="Line_164" data-name="Line 164" transform="translate(20.292 55.995)" fill="none" stroke="#595959" stroke-linecap="round" stroke-linejoin="round" stroke-miterlimit="22.926" stroke-width="0.5"/>
      <line id="Line_165" data-name="Line 165" transform="translate(19.042 57.244)" fill="none" stroke="#595959" stroke-linecap="round" stroke-linejoin="round" stroke-miterlimit="22.926" stroke-width="0.5"/>
      <line id="Line_166" data-name="Line 166" transform="translate(18.584 58.952)" fill="none" stroke="#595959" stroke-linecap="round" stroke-linejoin="round" stroke-miterlimit="22.926" stroke-width="0.5"/>
      <line id="Line_167" data-name="Line 167" transform="translate(19.042 60.659)" fill="none" stroke="#595959" stroke-linecap="round" stroke-linejoin="round" stroke-miterlimit="22.926" stroke-width="0.5"/>
      <line id="Line_168" data-name="Line 168" transform="translate(20.292 61.909)" fill="none" stroke="#595959" stroke-linecap="round" stroke-linejoin="round" stroke-miterlimit="22.926" stroke-width="0.5"/>
      <line id="Line_169" data-name="Line 169" transform="translate(21.999 62.366)" fill="none" stroke="#595959" stroke-linecap="round" stroke-linejoin="round" stroke-miterlimit="22.926" stroke-width="0.5"/>
      <line id="Line_170" data-name="Line 170" transform="translate(23.706 61.909)" fill="none" stroke="#595959" stroke-linecap="round" stroke-linejoin="round" stroke-miterlimit="22.926" stroke-width="0.5"/>
      <line id="Line_171" data-name="Line 171" transform="translate(24.956 60.659)" fill="none" stroke="#595959" stroke-linecap="round" stroke-linejoin="round" stroke-miterlimit="22.926" stroke-width="0.5"/>
      <line id="Line_172" data-name="Line 172" transform="translate(25.414 58.952)" fill="none" stroke="#595959" stroke-linecap="round" stroke-linejoin="round" stroke-miterlimit="22.926" stroke-width="0.5"/>
    </g>
  </g>
</svg>
