<svg xmlns="http://www.w3.org/2000/svg" xmlns:xlink="http://www.w3.org/1999/xlink" width="31.591" height="23.688" viewBox="0 0 31.591 23.688">
  <defs>
    <clipPath id="clip-path">
      <rect id="Rectangle_35310" data-name="Rectangle 35310" width="23.688" height="31.591" fill="#f8f8e2"/>
    </clipPath>
  </defs>
  <g id="Group_167069" data-name="Group 167069" transform="translate(0 23.688) rotate(-90)">
    <g id="Group_167066" data-name="Group 167066" transform="translate(0 0)" clip-path="url(#clip-path)">
      <path id="Path_17206" data-name="Path 17206" d="M19.163,1.541V25.147a1.6,1.6,0,0,0,3.191,0V1.541a1.6,1.6,0,0,0-3.191,0" transform="translate(-8.97 0)" fill="#f8f8e2"/>
      <path id="Path_17207" data-name="Path 17207" d="M.824,33.093a19.233,19.233,0,0,1,9.909,10.244,1.611,1.611,0,0,0,3.078,0,25,25,0,0,1,9.183-12.768c1.647-1.194.056-3.964-1.611-2.755a28.607,28.607,0,0,0-10.65,14.675h3.078A22.392,22.392,0,0,0,2.435,30.337c-1.85-.86-3.473,1.89-1.611,2.756" transform="translate(0 -12.88)" fill="#f8f8e2"/>
    </g>
  </g>
</svg>
