<svg xmlns="http://www.w3.org/2000/svg" xmlns:xlink="http://www.w3.org/1999/xlink" width="84.568" height="88.204" viewBox="0 0 84.568 88.204">
  <defs>
    <clipPath id="clip-path">
      <rect id="Rectangle_35310" data-name="Rectangle 35310" width="30.838" height="41.126" fill="#169f5f"/>
    </clipPath>
  </defs>
  <g id="Group_167307" data-name="Group 167307" transform="translate(-1651.316 -854.424)">
    <g id="Group_167067" data-name="Group 167067" transform="translate(16.115 -43.104)">
      <rect id="Rectangle_28" data-name="Rectangle 28" width="82.198" height="82.198" rx="41.099" transform="translate(1636.387 900.531)" fill="#f8fae2"/>
      <path id="Path_74" data-name="Path 74" d="M2585.841,361.733c-6.072,1.044-15.22,5.919-20.085,10.666-5.333,5.191-7.941,9.305-9.965,15.762-.973,3.133-1.206,4.589-1.518,10.286-.389,7.121,0,13.609,1.051,17.819a41.794,41.794,0,0,0,7.785,15.034,46.052,46.052,0,0,0,11.444,9.432c1.83,1.044,4.2,2.373,5.255,3.006a70.091,70.091,0,0,0,12.261,5,43.468,43.468,0,0,0,12.456.538c5.683-.7,13.624-4.684,19.619-9.875a65.1,65.1,0,0,0,10.587-12.47c2.141-3.608,3.7-9.622,3.931-15.034a116.124,116.124,0,0,0-1.674-20.477c-1.518-8.735-4.359-13.262-13.2-21.111-3.036-2.69-4.165-3.45-6.306-4.3-2.763-1.076-5.566-1.583-5.566-1.044,0,.443,2.958,2.627,4.749,3.513,1.713.886,7.824,6.3,10.549,9.4a28.9,28.9,0,0,1,5.527,9.4c.934,3.26,2.063,11.267,2.569,18.135.506,6.995.273,9.115-1.829,15.825-1.4,4.558-5.411,10.286-10.86,15.445-3.815,3.64-10.86,7.849-15.3,9.178a37.439,37.439,0,0,1-13.312.412,54.729,54.729,0,0,1-12.534-5.032c-1.129-.728-3.581-2.152-5.449-3.2a37.367,37.367,0,0,1-17.672-24.877c-.934-5.286-.623-18.958.545-22.63,2.647-8.419,6.578-14.116,13.2-19.148a35.768,35.768,0,0,1,24.367-7.786c2.919.158,3.814.095,3.7-.19-.272-.633-2.063-1.551-3.659-1.836a40.463,40.463,0,0,0-10.665.158" transform="translate(-918.923 536.237)" fill="#f8fae2" fill-rule="evenodd"/>
    </g>
    <g id="Group_167066" data-name="Group 167066" transform="translate(1677.364 877.964)">
      <g id="Group_167066-2" data-name="Group 167066" transform="translate(0 0)" clip-path="url(#clip-path)">
        <path id="Path_17206" data-name="Path 17206" d="M19.163,2.007V32.738c0,2.673,4.155,2.678,4.155,0V2.007c0-2.674-4.155-2.678-4.155,0" transform="translate(-5.894 0)" fill="#169f5f"/>
        <path id="Path_17207" data-name="Path 17207" d="M1.073,34.777a25.039,25.039,0,0,1,12.9,13.336,2.1,2.1,0,0,0,4.007,0A32.541,32.541,0,0,1,29.935,31.491c2.145-1.554.073-5.16-2.1-3.587a37.242,37.242,0,0,0-13.864,19.1H17.98A29.151,29.151,0,0,0,3.17,31.189c-2.409-1.12-4.522,2.46-2.1,3.588" transform="translate(0 -8.463)" fill="#169f5f"/>
      </g>
    </g>
  </g>
</svg>
