<svg xmlns="http://www.w3.org/2000/svg" width="23.68" height="23.681" viewBox="0 0 23.68 23.681">
  <path id="Path_18794" data-name="Path 18794" d="M1476.12,9631.86c0-4.73,0-7.091,1.12-8.8a6.847,6.847,0,0,1,1.92-1.909c1.7-1.131,4.07-1.131,8.8-1.131s7.09,0,8.8,1.131a6.683,6.683,0,0,1,1.91,1.909c1.13,1.71,1.13,4.07,1.13,8.8s0,7.1-1.13,8.8a6.846,6.846,0,0,1-1.91,1.92c-1.71,1.12-4.07,1.12-8.8,1.12s-7.1,0-8.8-1.12a7.017,7.017,0,0,1-1.92-1.92C1476.12,9638.96,1476.12,9636.59,1476.12,9631.86Zm17.97,0a6.13,6.13,0,1,1-6.13-6.13A6.124,6.124,0,0,1,1494.09,9631.86Zm-6.13,4.06a4.055,4.055,0,1,0-4.06-4.06A4.063,4.063,0,0,0,1487.96,9635.92Zm6.37-9.06a1.44,1.44,0,1,0-1.44-1.44A1.435,1.435,0,0,0,1494.33,9626.86Z" transform="translate(-1476.12 -9620.02)" fill="#f8f8e2" fill-rule="evenodd"/>
</svg>
