<svg xmlns="http://www.w3.org/2000/svg" xmlns:xlink="http://www.w3.org/1999/xlink" width="24" height="24" viewBox="0 0 24 24">
  <defs>
    <clipPath id="clip-path">
      <path id="path2067" d="M0-682.665H24v24H0Z" transform="translate(0 682.665)" fill="#797979"/>
    </clipPath>
  </defs>
  <g id="g2061" transform="translate(0 682.665)">
    <g id="g2063" transform="translate(0 -682.665)">
      <g id="g2065" clip-path="url(#clip-path)">
        <g id="g2071" transform="translate(0.347 21.651)">
          <path id="path2073" d="M-27.348,0h3.21a1,1,0,0,1,.994.994v.8a.2.2,0,0,1-.2.2h-4.8a.2.2,0,0,1-.2-.2v-.8a1,1,0,0,1,1-.994Z" transform="translate(28.35 0)" fill="none" stroke="#797979" stroke-linecap="round" stroke-linejoin="round" stroke-miterlimit="10" stroke-width="0.5"/>
        </g>
        <g id="g2075" transform="translate(5.817 1.09)">
          <path id="path2077" d="M-8.353-219.277H-.972a.3.3,0,0,0,.3-.3v-7.381a.3.3,0,0,0-.3-.3H-8.353a.3.3,0,0,0-.3.3v7.381A.3.3,0,0,0-8.353-219.277Z" transform="translate(8.652 227.256)" fill="none" stroke="#797979" stroke-linecap="round" stroke-linejoin="round" stroke-miterlimit="10" stroke-width="0.5"/>
        </g>
        <g id="g2079" transform="translate(2.053 0.353)">
          <path id="path2081" d="M0-379.29v-12.922a.9.9,0,0,1,.9-.9.9.9,0,0,1,.9.9v20.4H0v-5.877" transform="translate(0 393.109)" fill="none" stroke="#797979" stroke-linecap="round" stroke-linejoin="round" stroke-miterlimit="10" stroke-width="0.5"/>
        </g>
        <path id="path2083" d="M109.514-627.279h1.963v-1.694h-1.963Z" transform="translate(-105.664 630.86)" fill="none" stroke="#797979" stroke-linecap="round" stroke-linejoin="round" stroke-miterlimit="10" stroke-width="0.5"/>
        <path id="path2085" d="M109.514-494.239h1.963v-1.694h-1.963Z" transform="translate(-105.664 502.501)" fill="none" stroke="#797979" stroke-linecap="round" stroke-linejoin="round" stroke-miterlimit="10" stroke-width="0.5"/>
        <g id="g2087" transform="translate(21.002 13.726)">
          <path id="path2089" d="M0,0H1.567a1.087,1.087,0,0,1,0,2.174H1.026" fill="none" stroke="#797979" stroke-linecap="round" stroke-linejoin="round" stroke-miterlimit="10" stroke-width="0.5"/>
        </g>
        <g id="g2091" transform="translate(8.063 11.369)">
          <path id="path2093" d="M-225.452-287.554h6.218c.365,0,.377-.15.377-.532v-3.063a1.5,1.5,0,0,0-.2-.991l-2.231-4.706c-.571-1.2-.676-1.189-2.042-1.184h-5.852c-1.36,0-1.471-.019-2.041,1.184l-2.231,4.706a1.5,1.5,0,0,0-.2.991v3.063c0,.387.013.532.378.532h6.236" transform="translate(233.678 298.032)" fill="none" stroke="#797979" stroke-linecap="round" stroke-linejoin="round" stroke-miterlimit="10" stroke-width="0.5"/>
        </g>
        <g id="g2095" transform="translate(8.925 15.9)">
          <path id="path2097" d="M0,0H13.113" fill="none" stroke="#797979" stroke-linecap="round" stroke-linejoin="round" stroke-miterlimit="10" stroke-width="0.5"/>
        </g>
        <g id="g2099" transform="translate(7.309 13.726)">
          <path id="path2101" d="M-72.6,0h-1.567a1.081,1.081,0,0,0-1.081,1.081,1.081,1.081,0,0,0,1.081,1.081h.541" transform="translate(75.252)" fill="none" stroke="#797979" stroke-linecap="round" stroke-linejoin="round" stroke-miterlimit="10" stroke-width="0.5"/>
        </g>
        <g id="g2103" transform="translate(13.705 18.373)">
          <path id="path2105" d="M-97.843-43.614H-101.4m0-1.589h3.564" transform="translate(101.4 45.203)" fill="none" stroke="#797979" stroke-linecap="round" stroke-linejoin="round" stroke-miterlimit="10" stroke-width="0.5"/>
        </g>
        <g id="g2107" transform="translate(18.779 17.709)">
          <path id="path2109" d="M-30.886-61.774A1.127,1.127,0,0,0-29.762-62.9a1.126,1.126,0,0,0-1.124-1.126A1.127,1.127,0,0,0-32.012-62.9a1.127,1.127,0,0,0,1.126,1.126Z" transform="translate(32.012 64.026)" fill="none" stroke="#797979" stroke-linecap="round" stroke-linejoin="round" stroke-miterlimit="10" stroke-width="0.5"/>
        </g>
        <g id="g2111" transform="translate(9.93 17.709)">
          <path id="path2113" d="M-30.851-61.774A1.127,1.127,0,0,0-29.725-62.9a1.126,1.126,0,0,0-1.126-1.126A1.126,1.126,0,0,0-31.975-62.9a1.127,1.127,0,0,0,1.124,1.126Z" transform="translate(31.975 64.026)" fill="none" stroke="#797979" stroke-linecap="round" stroke-linejoin="round" stroke-miterlimit="10" stroke-width="0.5"/>
        </g>
        <g id="g2115" transform="translate(8.459 21.847)">
          <path id="path2117" d="M-73.664,0V1.274a.529.529,0,0,1-.522.52h-1.63a.529.529,0,0,1-.528-.528V0Z" transform="translate(76.343)" fill="none" stroke="#797979" stroke-linecap="round" stroke-linejoin="round" stroke-miterlimit="10" stroke-width="0.5"/>
        </g>
        <g id="g2119" transform="translate(19.817 21.847)">
          <path id="path2121" d="M-73.7,0V1.274a.529.529,0,0,1-.528.528h-1.63a.529.529,0,0,1-.528-.528V0Z" transform="translate(76.386)" fill="none" stroke="#797979" stroke-linecap="round" stroke-linejoin="round" stroke-miterlimit="10" stroke-width="0.5"/>
        </g>
        <g id="g2123" transform="translate(8.462 2.482)">
          <path id="path2125" d="M0,0V5.182" fill="none" stroke="#797979" stroke-linecap="round" stroke-linejoin="round" stroke-miterlimit="10" stroke-width="0.5"/>
        </g>
        <g id="g2127" transform="translate(8.475 2.473)">
          <path id="path2129" d="M-80.516-40.129A1.5,1.5,0,0,1-82-38.667h-1.432V-41.6h1.443a1.5,1.5,0,0,1,1.477,1.468Z" transform="translate(83.436 41.6)" fill="none" stroke="#797979" stroke-linecap="round" stroke-linejoin="round" stroke-miterlimit="10" stroke-width="0.5"/>
        </g>
      </g>
    </g>
  </g>
</svg>
