<svg xmlns="http://www.w3.org/2000/svg" width="17.256" height="12.924" viewBox="0 0 17.256 12.924">
  <g id="Group_167464" data-name="Group 167464" transform="translate(0 -64.266)">
    <path id="Path_18768" data-name="Path 18768" d="M10.07,176.2a2.6,2.6,0,0,1-2.884,0L.115,171.483Q.056,171.444,0,171.4v7.725a1.588,1.588,0,0,0,1.589,1.589H15.667a1.588,1.588,0,0,0,1.589-1.589V171.4c-.038.028-.076.055-.115.082Z" transform="translate(0 -103.525)" fill="#f8f8e2"/>
    <path id="Path_18769" data-name="Path 18769" d="M.676,67.117l7.071,4.714a1.584,1.584,0,0,0,1.762,0l7.071-4.714a1.514,1.514,0,0,0,.676-1.263,1.59,1.59,0,0,0-1.588-1.588H1.588A1.59,1.59,0,0,0,0,65.855a1.514,1.514,0,0,0,.676,1.262Z" fill="#f8f8e2"/>
  </g>
</svg>
