<svg xmlns="http://www.w3.org/2000/svg" width="13.851" height="17.442" viewBox="0 0 13.851 17.442">
  <path id="location_on_FILL0_wght300_GRAD0_opsz24" d="M185.005-851.406a1.594,1.594,0,0,0,1.171-.488,1.6,1.6,0,0,0,.486-1.173,1.594,1.594,0,0,0-.488-1.171,1.6,1.6,0,0,0-1.172-.486,1.593,1.593,0,0,0-1.171.488,1.6,1.6,0,0,0-.486,1.172,1.594,1.594,0,0,0,.488,1.171A1.6,1.6,0,0,0,185.005-851.406Zm0,7.017a23.55,23.55,0,0,0,4.121-4.624,7.459,7.459,0,0,0,1.428-3.877,5.629,5.629,0,0,0-1.594-4.125A5.333,5.333,0,0,0,185-858.632a5.333,5.333,0,0,0-3.955,1.616,5.629,5.629,0,0,0-1.594,4.125,7.459,7.459,0,0,0,1.428,3.877A23.55,23.55,0,0,0,185-844.389Zm0,1.831a29.373,29.373,0,0,1-5.195-5.586,8.723,8.723,0,0,1-1.731-4.746,6.8,6.8,0,0,1,2.055-5.143A6.807,6.807,0,0,1,185-860a6.807,6.807,0,0,1,4.871,1.966,6.8,6.8,0,0,1,2.055,5.143,8.723,8.723,0,0,1-1.731,4.746A29.373,29.373,0,0,1,185-842.557ZM185-853.065Z" transform="translate(-178.078 859.999)" fill="#f8f8e2"/>
</svg>
